<?xml version="1.0" encoding="UTF-8" standalone="no"?>
<!DOCTYPE svg PUBLIC "-//W3C//DTD SVG 1.1//EN" "http://www.w3.org/Graphics/SVG/1.1/DTD/svg11.dtd">
<svg width="100%" height="100%" viewBox="0 0 1200 1200" version="1.1" xmlns="http://www.w3.org/2000/svg" xmlns:xlink="http://www.w3.org/1999/xlink" xml:space="preserve" xmlns:serif="http://www.serif.com/" style="fill-rule:evenodd;clip-rule:evenodd;stroke-linejoin:round;stroke-miterlimit:1.41421;">
    <g id="Layer-2" serif:id="Layer 2">
        <g transform="matrix(1,0,0,1,751.734,739.39)">
            <path d="M0,-331.112L-165.338,15.612L-329.784,-329.175C-341.043,-346.328 -347.624,-366.849 -347.624,-388.913C-347.624,-449.084 -298.857,-512.085 -238.679,-512.085C-210.513,-512.085 -184.842,-487.149 -165.502,-469.603C-146.173,-487.149 -120.494,-512.085 -92.332,-512.085C-32.151,-512.085 16.619,-449.084 16.619,-388.913C16.619,-367.672 10.51,-347.874 0,-331.112M-17.727,-699.901C-74.764,-699.901 -126.753,-649.423 -165.917,-613.908C-205.102,-649.423 -257.084,-699.901 -314.122,-699.901C-435.969,-699.901 -534.752,-572.311 -534.752,-450.465C-534.752,-405.764 -521.425,-364.225 -498.591,-329.47L-165.606,368.789L169.262,-333.395C190.543,-367.343 202.896,-407.441 202.896,-450.465C202.896,-572.311 104.122,-699.901 -17.727,-699.901" style="fill:rgb(255,134,95);fill-rule:nonzero;"/>
        </g>
        <g transform="matrix(1,0,0,1,780.112,791.728)">
            <path d="M0,-331.123L-165.339,15.606L-329.777,-329.188C-341.043,-346.339 -347.624,-366.854 -347.624,-388.92C-347.624,-449.097 -298.854,-512.09 -238.679,-512.09C-210.513,-512.09 -184.842,-487.161 -165.503,-469.609C-146.166,-487.161 -120.493,-512.09 -92.327,-512.09C-32.151,-512.09 16.614,-449.097 16.614,-388.92C16.614,-367.678 10.513,-347.878 0,-331.123M-17.729,-699.905C-74.764,-699.905 -126.751,-649.434 -165.918,-613.911C-205.093,-649.434 -257.082,-699.905 -314.122,-699.905C-435.967,-699.905 -534.752,-572.317 -534.752,-450.47C-534.752,-405.776 -521.419,-364.228 -498.59,-329.481L-165.6,368.782L169.269,-333.405C190.55,-367.349 202.905,-407.454 202.905,-450.47C202.905,-572.317 104.118,-699.905 -17.729,-699.905" style="fill-rule:nonzero;"/>
        </g>
    </g>
</svg>
