<?xml version="1.0" standalone="no"?>
<!DOCTYPE svg PUBLIC "-//W3C//DTD SVG 20010904//EN"
 "http://www.w3.org/TR/2001/REC-SVG-20010904/DTD/svg10.dtd">
<svg version="1.0" xmlns="http://www.w3.org/2000/svg"
 width="16.000000pt" height="16.000000pt" viewBox="0 0 16.000000 16.000000"
 preserveAspectRatio="xMidYMid meet">
<metadata>
Created by potrace 1.11, written by Peter Selinger 2001-2013
</metadata>
<g transform="translate(0.000000,16.000000) scale(0.001563,-0.001563)"
fill="#000000" stroke="none">
<path d="M3666 9354 c-339 -52 -646 -211 -920 -474 -413 -397 -664 -937 -692
-1493 -18 -345 81 -731 263 -1027 21 -36 284 -578 583 -1205 299 -627 732
-1536 962 -2020 723 -1515 927 -1942 1054 -2205 68 -140 139 -286 157 -323
l32 -68 142 298 c78 164 402 845 721 1513 319 668 835 1751 1147 2405 312 655
610 1278 661 1387 51 108 107 218 123 246 124 201 214 483 242 762 61 607
-241 1342 -731 1777 -304 271 -662 424 -1025 440 -352 16 -656 -139 -1149
-585 l-133 -121 -134 121 c-408 367 -684 533 -960 578 -86 13 -234 11 -343 -6z
m1014 -1578 c90 -39 207 -119 322 -220 53 -47 100 -86 103 -86 3 0 41 30 83
68 233 204 366 272 535 272 298 0 591 -205 756 -530 95 -187 126 -318 118
-514 -6 -169 -22 -227 -114 -416 -82 -168 -789 -1649 -1146 -2400 -121 -256
-223 -468 -226 -472 -3 -4 -56 97 -117 225 -62 128 -198 412 -304 632 -106
220 -351 733 -545 1140 -194 407 -384 801 -423 876 -90 176 -116 274 -116 444
0 66 6 147 13 180 85 404 360 723 702 815 112 30 271 24 359 -14z"/>
</g>
</svg>
